<svg width="155" height="20" viewBox="0 0 155 20" fill="none" xmlns="http://www.w3.org/2000/svg">
<path d="M77.1904 17.0245H72.0287V3.22486H77.1904V17.0245ZM72.5328 16.5204H76.6864V3.72893H72.5328V16.5204ZM84.3726 17.0245H79.3146V3.22486H89.8821C91.396 3.10226 92.9036 3.52727 94.1305 4.42255C94.6587 4.90577 95.0681 5.50449 95.3267 6.17199C95.5854 6.8395 95.6863 7.55774 95.6216 8.27068C95.697 9.50261 95.3049 10.7177 94.5237 11.6732C93.5992 12.7338 92.0607 13.2802 89.9517 13.2994C89.4204 13.3135 85.4392 13.2994 84.3756 13.2994L84.3726 17.0245ZM79.8157 16.5204H83.8685V12.7902H84.1215C84.1729 12.7902 89.3418 12.8064 89.9396 12.7902C91.9045 12.7731 93.3169 12.2862 94.1426 11.3355C94.838 10.4709 95.1834 9.37678 95.1104 8.26967C95.1724 7.63087 95.0864 6.98638 94.8592 6.38617C94.6319 5.78597 94.2694 5.24618 93.7998 4.80867C92.6622 3.99216 91.2704 3.60889 89.8751 3.72793H79.8187L79.8157 16.5204ZM88.8115 10.1993H83.8342V6.44289H88.8447C89.1999 6.39381 89.5617 6.43527 89.8965 6.5634C90.2315 6.69153 90.5285 6.90219 90.7602 7.17582C90.9704 7.52559 91.0695 7.93091 91.0445 8.33822C91.0634 8.71638 90.9817 9.0928 90.8076 9.42905C90.5686 9.71726 90.2594 9.93913 89.9098 10.0733C89.5602 10.2075 89.182 10.2495 88.8115 10.1952V10.1993ZM84.3383 9.6952H88.8115C89.6382 9.6952 90.1503 9.52281 90.3771 9.16794C90.502 8.91 90.5586 8.6243 90.5415 8.33822C90.5635 8.03785 90.4984 7.7375 90.3539 7.47323L90.3479 7.46415C90.108 7.1113 89.6311 6.94697 88.8447 6.94697H84.3383V9.6952ZM104.821 17.2281C100.294 17.2281 97.5925 16.1041 96.5632 13.7923C96.3947 13.3458 96.2804 12.8808 96.2224 12.4071L96.1781 12.1168H101.564L101.599 12.3285C101.64 12.5434 101.732 12.7458 101.865 12.9193C102.078 13.1764 102.788 13.6079 105.143 13.6079C107.973 13.6079 107.973 13.1108 107.973 12.8437C107.973 12.393 107.646 12.2388 105.337 11.9928L104.899 11.9515C104.03 11.8698 102.931 11.766 102.429 11.7226C98.1944 11.3395 96.3041 10.0239 96.3041 7.4581C96.3041 4.7633 99.5211 3.02222 104.5 3.02222C108.562 3.02222 111.179 4.09288 112.277 6.20698C112.537 6.69874 112.713 7.23126 112.794 7.78172L112.83 8.06501H107.438L107.416 7.83717C107.395 7.65911 107.319 7.49207 107.198 7.3593C106.997 7.08912 106.359 6.64251 104.381 6.64251C101.953 6.64251 101.618 6.95302 101.618 7.28772C101.618 7.73434 102.385 7.89262 104.844 8.15575C105.869 8.23942 107.518 8.40879 108.082 8.47735C111.632 8.86246 113.216 10.1458 113.216 12.64C113.217 14.7319 111.76 17.2281 104.821 17.2281ZM96.7668 12.6209C96.8173 12.9534 96.9042 13.2792 97.0259 13.5927C97.9635 15.6988 100.514 16.7241 104.821 16.7241C108.422 16.7241 112.716 16.0184 112.716 12.64C112.716 10.4291 111.315 9.33428 108.029 8.9784C107.464 8.90985 105.826 8.74149 104.803 8.6568C102.182 8.3725 101.116 8.22128 101.116 7.28772C101.116 6.32191 102.264 6.13843 104.383 6.13843C106.058 6.13843 107.14 6.44087 107.598 7.05081C107.723 7.20107 107.818 7.37438 107.877 7.56094H112.246C112.158 7.17103 112.019 6.79442 111.833 6.44087C110.825 4.50622 108.362 3.52629 104.502 3.52629C99.8296 3.52629 96.8102 5.06978 96.8102 7.4581C96.8102 9.73654 98.5049 10.8616 102.475 11.2205C102.979 11.2639 104.077 11.3677 104.948 11.4504L105.39 11.4917C107.534 11.7176 108.48 11.8587 108.48 12.8437C108.48 13.9043 107.257 14.1119 105.145 14.1119C103.191 14.1119 101.957 13.8186 101.48 13.2409C101.333 13.0567 101.222 12.8463 101.153 12.6209H96.7668ZM122.793 17.211C117.531 17.211 114.627 15.0828 114.627 11.2175V3.22486H119.721V11.2175C119.721 12.5432 120.907 13.3034 122.975 13.3034C124.951 13.3034 126.178 12.51 126.178 11.2347V3.22486H131.219V11.6409C131.224 15.1806 128.15 17.211 122.79 17.211H122.793ZM115.131 3.72893V11.2175C115.131 15.9942 119.928 16.7069 122.793 16.7069C125.755 16.7069 130.723 16.0486 130.723 11.6409V3.72893H126.69V11.2347C126.69 12.7973 125.234 13.8075 122.983 13.8075C120.63 13.8075 119.225 12.8396 119.225 11.2175V3.72893H115.131ZM152.579 17.0245H147.772V10.7941L145.046 17.0245H140.853L138.156 10.8062V17.0245H133.332V3.22486H139.677L142.974 10.8334L146.43 3.22486H152.585L152.579 17.0245ZM148.277 16.5204H152.075V3.72893H146.75L142.957 12.0755L139.342 3.72893H133.832V16.5204H137.648V8.38057L141.176 16.5234H144.705L148.27 8.39266L148.277 16.5204ZM6.98348 3.4769H2.39233V16.7725H15.079V13.2328H6.98348V3.4769ZM24.3459 3.17445C18.4855 3.17445 15.4036 5.95192 15.4036 10.0299C15.4036 14.6372 18.6388 16.9741 24.3459 16.9741C30.6288 16.9741 33.2711 14.2642 33.2711 10.0299C33.2711 5.73012 30.29 3.17243 24.3459 3.17243V3.17445ZM24.3288 6.6294C24.7277 6.62752 25.1265 6.65075 25.5225 6.69896L20.3899 11.8315C20.1471 11.2821 20.0286 10.6858 20.0431 10.0854C20.0431 7.99948 21.0936 6.62738 24.3288 6.62738V6.6294ZM24.3459 13.5736C23.9615 13.5753 23.5774 13.5537 23.1956 13.5091L28.3372 8.36746C28.571 8.90773 28.6829 9.4929 28.6649 10.0813C28.6649 12.1107 27.697 13.5716 24.3459 13.5716V13.5736ZM42.3677 11.7589H47.093C47.0234 12.0869 46.8784 12.394 46.6695 12.6562C45.6899 13.4542 44.4397 13.8426 43.1803 13.7399C42.5464 13.8078 41.9054 13.7385 41.3006 13.5369C40.6958 13.3354 40.1413 13.0061 39.6749 12.5715C39.1972 11.8707 38.9702 11.0291 39.0307 10.1831C38.9534 9.29672 39.2002 8.41234 39.7254 7.69401C40.3857 6.94798 41.5037 6.62637 43.147 6.62637C44.1926 6.5398 45.2368 6.80833 46.111 7.38854C46.3865 7.60739 46.5925 7.9016 46.7038 8.23539H51.0863C51.0544 7.68541 50.9221 7.14591 50.6961 6.64351C49.6466 4.50925 47.2069 3.23897 43.0583 3.23897C39.4501 3.23897 37.0285 4.33988 35.6907 6.00031C34.8072 7.19937 34.3536 8.66128 34.4033 10.1499C34.3461 11.6722 34.788 13.1714 35.6615 14.4194C36.9832 16.1333 39.3372 16.9761 42.1661 16.9761C44.0468 17.1073 45.9147 16.5805 47.4498 15.486L47.5688 16.7725H51.2093V8.89674H42.3677V11.7589ZM61.5419 3.17142C55.6824 3.17142 52.5995 5.94889 52.5995 10.0269C52.5995 14.6342 55.8337 16.9711 61.5419 16.9711C67.8257 16.9711 70.4681 14.2611 70.4681 10.0269C70.4681 5.73012 67.4869 3.17243 61.5419 3.17243V3.17142ZM61.5257 6.62637C61.9142 6.62523 62.3023 6.64745 62.6881 6.69291L57.5758 11.8083C57.3405 11.265 57.2259 10.6772 57.24 10.0854C57.236 7.99948 58.2905 6.62738 61.5257 6.62738V6.62637ZM61.5419 13.5706C61.1473 13.5723 60.753 13.5493 60.3613 13.502L65.52 8.34226C65.7627 8.88972 65.8788 9.48482 65.8598 10.0833C65.8618 12.1107 64.898 13.5716 61.5419 13.5716V13.5706Z" fill="white"/>
</svg>
