<svg width="90" height="6" fill="none" xmlns="http://www.w3.org/2000/svg"><path d="M5.6 6H4.3V1H2.8v.6l-.5 2.8-.6 1.2c-.3.2-.6.3-1 .3A2 2 0 0 1 0 6V4.8h.5l.3-.1.3-.7a31.2 31.2 0 0 0 .6-4h4v5.8ZM10.7 6H7.2V0h3.5v1.1H8.5v1.3h2v1h-2v1.5h2.2v1ZM14.4 6h-1.3V1h-1.7v-1h4.7v1h-1.7V6ZM23.8 6h-1.3V3.3H20v2.5h-1.3V.1H20v2.3h2.5V0h1.3v5.8ZM29.1 6l-.4-1.5h-2.3L26 6h-1.4L26.8.1h1.6l2.1 5.8h-1.4Zm-.7-2.5a1192.4 1192.4 0 0 1-.8-2.5l-.8 2.5h1.6ZM35.9 4.9h1.9V0h1.3v5.8h-7.8V.1h1.3v4.8h2V0h1.3v4.8ZM44.2 6h-3.5V0h3.5v1.1H42v1.3h2v1h-2v1.5h2.2v1ZM49.4 0v1.1h-2.6V6h-1.3V.1h4ZM56 3c0 1-.3 1.7-.8 2.2-.5.5-1.3.8-2.2.8-1 0-1.7-.3-2.2-.8C50.3 4.7 50 4 50 3c0-1 .3-1.7.8-2.2C51.3.3 52 0 53 0c1 0 1.7.3 2.2.8.5.5.7 1.2.7 2.2Zm-4.6 0c0 .6.1 1.1.4 1.5.3.3.7.5 1.2.5 1 0 1.5-.7 1.5-2S54 1 53 1c-.5 0-1 .2-1.2.5-.3.4-.4.8-.4 1.5ZM64.5 3c0 1-.3 1.7-.8 2.2-.5.5-1.2.8-2.2.8-.9 0-1.6-.3-2.1-.8S58.6 4 58.6 3c0-1 .3-1.7.8-2.2.5-.5 1.2-.8 2.2-.8 1 0 1.6.3 2.1.8s.8 1.2.8 2.2ZM60 3c0 .6.1 1.1.4 1.5.2.3.6.5 1.1.5 1 0 1.6-.7 1.6-2s-.5-2-1.5-2c-.6 0-1 .2-1.2.5-.3.4-.4.8-.4 1.5ZM70.7 6h-1.3V1H67V6h-1.3V.1h4.9v5.8ZM76.5 4.1c0 .6-.3 1-.7 1.4-.4.3-1 .4-1.9.4h-1.7V.1h1.3v2.2h.5c.8 0 1.4.2 1.8.5.4.3.7.7.7 1.3Zm-3 .8h.4c.4 0 .7 0 1-.2l.2-.6c0-.3 0-.5-.3-.6a2 2 0 0 0-1-.2h-.3V5Zm5 1h-1.3V.1h1.3v5.8ZM82.5 6h-1.3V1h-1.7v-1H84v1h-1.6V6ZM88.6 6 88 4.4H86L85.4 6H84L86.2.1h1.6L90 5.9h-1.4Zm-.8-2.5A1105 1105 0 0 1 87 1l-.8 2.5h1.6Z" fill="#0A3B93"/></svg>